<?xml version="1.0" encoding="UTF-8"?>
<svg id="Layer_1" data-name="Layer 1" xmlns="http://www.w3.org/2000/svg" viewBox="0 0 622 603">
  <defs>
    <style>
      .cls-1, .cls-2 {
        fill: none;
      }

      .cls-3 {
        fill: #fff;
      }

      .cls-4 {
        fill: #4f7cac;
      }

      .cls-2 {
        stroke: #000;
        stroke-width: 7px;
      }
    </style>
  </defs>
  <rect class="cls-1" width="622" height="603"/>
  <line class="cls-2" x1="98.88" y1="148.05" x2="284.74" y2="266.44"/>
  <circle class="cls-4" cx="409.5" cy="337.5" r="114.5"/>
  <path class="cls-3" d="M326.12,369.6v-43.52h4.99l.13,7.3-.77-.38c.85-2.52,2.26-4.42,4.22-5.7,2-1.32,4.31-1.98,6.91-1.98,3.37,0,6.12.83,8.26,2.5,2.18,1.66,3.78,3.84,4.8,6.53,1.07,2.69,1.6,5.59,1.6,8.7s-.53,6.02-1.6,8.7c-1.02,2.69-2.62,4.86-4.8,6.53-2.13,1.66-4.89,2.5-8.26,2.5-1.75,0-3.39-.3-4.93-.9-1.49-.6-2.77-1.43-3.84-2.5-1.02-1.07-1.73-2.33-2.11-3.78l.77-.9v16.9h-5.38ZM341.1,355.65c2.94,0,5.27-1.11,6.98-3.33s2.56-5.31,2.56-9.28-.85-7.06-2.56-9.28c-1.71-2.22-4.03-3.33-6.98-3.33-1.96,0-3.67.47-5.12,1.41-1.41.94-2.52,2.35-3.33,4.22-.77,1.88-1.15,4.2-1.15,6.98s.38,5.1,1.15,6.98c.77,1.88,1.88,3.29,3.33,4.22,1.45.94,3.16,1.41,5.12,1.41ZM372.33,360.77c-3.2,0-5.97-.73-8.32-2.18-2.3-1.45-4.1-3.5-5.38-6.14-1.24-2.69-1.86-5.82-1.86-9.41s.62-6.7,1.86-9.34c1.28-2.65,3.05-4.69,5.31-6.14,2.3-1.49,5.01-2.24,8.13-2.24,2.94,0,5.55.7,7.81,2.11,2.26,1.36,4.01,3.37,5.25,6.02,1.28,2.64,1.92,5.87,1.92,9.66v1.6h-24.64c.21,3.63,1.17,6.36,2.88,8.19,1.75,1.83,4.1,2.75,7.04,2.75,2.22,0,4.03-.51,5.44-1.54,1.45-1.07,2.45-2.45,3.01-4.16l5.76.45c-.9,3.03-2.6,5.52-5.12,7.49-2.48,1.92-5.5,2.88-9.09,2.88ZM362.41,339.97h18.75c-.26-3.28-1.22-5.7-2.88-7.23-1.62-1.54-3.69-2.3-6.21-2.3s-4.76.81-6.46,2.43c-1.66,1.58-2.73,3.95-3.2,7.1ZM403.1,360.77c-3.12,0-5.85-.73-8.19-2.18-2.35-1.45-4.16-3.5-5.44-6.14-1.28-2.69-1.92-5.82-1.92-9.41s.64-6.76,1.92-9.41c1.28-2.64,3.09-4.69,5.44-6.14,2.35-1.45,5.08-2.18,8.19-2.18s5.82.72,8.13,2.18c2.35,1.45,4.16,3.5,5.44,6.14,1.28,2.65,1.92,5.78,1.92,9.41s-.64,6.72-1.92,9.41c-1.28,2.64-3.09,4.69-5.44,6.14-2.3,1.45-5.01,2.18-8.13,2.18ZM403.1,355.65c3.11,0,5.52-1.11,7.23-3.33,1.75-2.26,2.62-5.36,2.62-9.28s-.88-7-2.62-9.22c-1.71-2.26-4.12-3.39-7.23-3.39s-5.55,1.13-7.3,3.39c-1.75,2.22-2.62,5.29-2.62,9.22s.87,7.02,2.62,9.28c1.75,2.22,4.18,3.33,7.3,3.33ZM421.43,369.6v-43.52h4.99l.13,7.3-.77-.38c.85-2.52,2.26-4.42,4.22-5.7,2-1.32,4.31-1.98,6.91-1.98,3.37,0,6.12.83,8.26,2.5,2.18,1.66,3.78,3.84,4.8,6.53,1.07,2.69,1.6,5.59,1.6,8.7s-.53,6.02-1.6,8.7c-1.02,2.69-2.62,4.86-4.8,6.53-2.13,1.66-4.89,2.5-8.26,2.5-1.75,0-3.39-.3-4.93-.9-1.49-.6-2.77-1.43-3.84-2.5-1.02-1.07-1.73-2.33-2.11-3.78l.77-.9v16.9h-5.38ZM436.41,355.65c2.94,0,5.27-1.11,6.98-3.33s2.56-5.31,2.56-9.28-.85-7.06-2.56-9.28c-1.71-2.22-4.03-3.33-6.98-3.33-1.96,0-3.67.47-5.12,1.41-1.41.94-2.52,2.35-3.33,4.22-.77,1.88-1.15,4.2-1.15,6.98s.38,5.1,1.15,6.98c.77,1.88,1.88,3.29,3.33,4.22,1.45.94,3.16,1.41,5.12,1.41ZM461.36,360c-1.96,0-3.56-.51-4.8-1.54-1.24-1.02-1.86-2.64-1.86-4.86v-39.04h5.38v38.59c0,.68.17,1.22.51,1.6.38.34.92.51,1.6.51h2.94v4.74h-3.78ZM480.16,360.77c-3.2,0-5.97-.73-8.32-2.18-2.3-1.45-4.1-3.5-5.38-6.14-1.24-2.69-1.86-5.82-1.86-9.41s.62-6.7,1.86-9.34c1.28-2.65,3.05-4.69,5.31-6.14,2.3-1.49,5.01-2.24,8.13-2.24,2.94,0,5.55.7,7.81,2.11,2.26,1.36,4.01,3.37,5.25,6.02,1.28,2.64,1.92,5.87,1.92,9.66v1.6h-24.64c.21,3.63,1.17,6.36,2.88,8.19,1.75,1.83,4.1,2.75,7.04,2.75,2.22,0,4.03-.51,5.44-1.54,1.45-1.07,2.45-2.45,3.01-4.16l5.76.45c-.9,3.03-2.6,5.52-5.12,7.49-2.47,1.92-5.5,2.88-9.09,2.88ZM470.24,339.97h18.75c-.26-3.28-1.22-5.7-2.88-7.23-1.62-1.54-3.69-2.3-6.21-2.3s-4.76.81-6.46,2.43c-1.66,1.58-2.73,3.95-3.2,7.1Z"/>
</svg>