<?xml version="1.0" encoding="UTF-8"?>
<svg id="Layer_1" data-name="Layer 1" xmlns="http://www.w3.org/2000/svg" viewBox="0 0 622 603">
  <defs>
    <style>
      .cls-1, .cls-2 {
        fill: none;
      }

      .cls-3 {
        fill: #fff;
      }

      .cls-4 {
        fill: #4f7cac;
      }

      .cls-2 {
        stroke: #000;
        stroke-width: 7px;
      }
    </style>
  </defs>
  <rect class="cls-1" width="622" height="603"/>
  <line class="cls-2" x1="331.88" y1="343.05" x2="517.74" y2="461.44"/>
  <ellipse class="cls-4" cx="246.5" cy="246.5" rx="140.5" ry="106.5"/>
  <path class="cls-3" d="M132.12,278.6v-43.52h4.99l.13,7.3-.77-.38c.85-2.52,2.26-4.42,4.22-5.7,2.01-1.32,4.31-1.98,6.91-1.98,3.37,0,6.12.83,8.26,2.5,2.18,1.66,3.78,3.84,4.8,6.53,1.07,2.69,1.6,5.59,1.6,8.7s-.53,6.02-1.6,8.7c-1.02,2.69-2.62,4.86-4.8,6.53-2.13,1.66-4.88,2.5-8.26,2.5-1.75,0-3.39-.3-4.93-.9-1.49-.6-2.77-1.43-3.84-2.5-1.02-1.07-1.73-2.33-2.11-3.78l.77-.9v16.9h-5.38ZM147.1,264.65c2.94,0,5.27-1.11,6.98-3.33s2.56-5.31,2.56-9.28-.85-7.06-2.56-9.28c-1.71-2.22-4.03-3.33-6.98-3.33-1.96,0-3.67.47-5.12,1.41-1.41.94-2.52,2.35-3.33,4.22-.77,1.88-1.15,4.2-1.15,6.98s.38,5.1,1.15,6.98c.77,1.88,1.88,3.29,3.33,4.22s3.16,1.41,5.12,1.41ZM178.33,269.77c-3.12,0-5.85-.73-8.19-2.18-2.35-1.45-4.16-3.5-5.44-6.14-1.28-2.69-1.92-5.82-1.92-9.41s.64-6.76,1.92-9.41c1.28-2.65,3.09-4.69,5.44-6.14,2.35-1.45,5.08-2.18,8.19-2.18s5.82.73,8.13,2.18c2.35,1.45,4.16,3.5,5.44,6.14,1.28,2.64,1.92,5.78,1.92,9.41s-.64,6.72-1.92,9.41c-1.28,2.64-3.09,4.69-5.44,6.14-2.3,1.45-5.01,2.18-8.13,2.18ZM178.33,264.65c3.11,0,5.52-1.11,7.23-3.33,1.75-2.26,2.62-5.36,2.62-9.28s-.88-7-2.62-9.22c-1.71-2.26-4.12-3.39-7.23-3.39s-5.55,1.13-7.3,3.39c-1.75,2.22-2.62,5.29-2.62,9.22s.87,7.02,2.62,9.28c1.75,2.22,4.18,3.33,7.3,3.33ZM208.69,269.77c-2.94,0-5.5-.73-7.68-2.18-2.13-1.45-3.78-3.5-4.93-6.14s-1.73-5.78-1.73-9.41.58-6.76,1.73-9.41c1.15-2.65,2.79-4.69,4.93-6.14,2.18-1.45,4.74-2.18,7.68-2.18,2.26,0,4.33.49,6.21,1.47,1.88.94,3.29,2.28,4.22,4.03v-16.26h5.38v45.44h-4.86l-.19-5.12c-.94,1.83-2.37,3.29-4.29,4.35-1.92,1.02-4.08,1.54-6.46,1.54ZM209.78,264.65c2.01,0,3.69-.51,5.06-1.54,1.41-1.02,2.48-2.48,3.2-4.35.73-1.92,1.09-4.16,1.09-6.72s-.36-4.91-1.09-6.78c-.72-1.88-1.79-3.31-3.2-4.29-1.37-1.02-3.05-1.54-5.06-1.54-2.99,0-5.38,1.13-7.17,3.39-1.75,2.22-2.62,5.29-2.62,9.22s.88,6.96,2.62,9.22c1.79,2.26,4.18,3.39,7.17,3.39ZM242.87,269.77c-3.16,0-5.91-.73-8.26-2.18-2.3-1.45-4.1-3.5-5.38-6.14-1.28-2.69-1.92-5.82-1.92-9.41s.64-6.7,1.92-9.34,3.07-4.69,5.38-6.14c2.35-1.49,5.1-2.24,8.26-2.24,2.6,0,4.91.47,6.91,1.41,2.05.9,3.71,2.22,4.99,3.97,1.28,1.75,2.11,3.88,2.5,6.4l-5.63.38c-.38-2.26-1.36-3.99-2.94-5.18-1.58-1.24-3.52-1.86-5.82-1.86-3.11,0-5.55,1.13-7.3,3.39-1.75,2.22-2.62,5.29-2.62,9.22s.88,7.02,2.62,9.28c1.75,2.22,4.18,3.33,7.3,3.33,2.3,0,4.25-.64,5.82-1.92,1.58-1.28,2.56-3.2,2.94-5.76l5.63.38c-.38,2.52-1.22,4.71-2.5,6.59-1.28,1.83-2.94,3.26-4.99,4.29-2,1.02-4.31,1.54-6.91,1.54ZM269.48,269.77c-3.5,0-6.29-.81-8.38-2.43-2.05-1.62-3.07-3.88-3.07-6.78s.85-5.18,2.56-6.85,4.42-2.84,8.13-3.52l12.03-2.24c0-2.86-.68-4.99-2.05-6.4-1.32-1.41-3.33-2.11-6.02-2.11-2.35,0-4.2.53-5.57,1.6-1.37,1.02-2.3,2.52-2.82,4.48l-5.7-.45c.64-3.2,2.18-5.78,4.61-7.74,2.48-2.01,5.63-3.01,9.47-3.01,4.35,0,7.68,1.24,9.98,3.71,2.3,2.43,3.46,5.8,3.46,10.11v14.02c0,.77.13,1.32.38,1.66.3.3.77.45,1.41.45h1.34v4.74c-.17.04-.45.06-.83.06-.38.04-.79.06-1.22.06-1.54,0-2.79-.23-3.78-.7-.94-.51-1.62-1.28-2.05-2.3-.43-1.07-.64-2.45-.64-4.16l.64.13c-.3,1.45-1.02,2.77-2.18,3.97-1.15,1.15-2.58,2.07-4.29,2.75-1.71.64-3.52.96-5.44.96ZM269.99,265.03c2.26,0,4.18-.43,5.76-1.28,1.62-.9,2.86-2.09,3.71-3.58.85-1.54,1.28-3.24,1.28-5.12v-2.43l-11.01,2.05c-2.3.43-3.9,1.09-4.8,1.98-.85.85-1.28,1.98-1.28,3.39,0,1.58.55,2.82,1.66,3.71,1.15.85,2.71,1.28,4.67,1.28ZM303.07,269.77c-3.03,0-5.61-.49-7.74-1.47-2.09-.98-3.73-2.32-4.93-4.03-1.15-1.75-1.81-3.73-1.98-5.95l5.63-.38c.34,2.05,1.22,3.69,2.62,4.93,1.41,1.2,3.54,1.79,6.4,1.79,2.3,0,4.14-.36,5.5-1.09,1.41-.77,2.11-1.98,2.11-3.65,0-.9-.21-1.64-.64-2.24-.43-.6-1.26-1.11-2.5-1.54-1.24-.47-3.07-.92-5.5-1.34-3.24-.6-5.8-1.32-7.68-2.18-1.84-.9-3.16-1.98-3.97-3.26-.77-1.32-1.15-2.88-1.15-4.67,0-3.03,1.11-5.5,3.33-7.42,2.22-1.96,5.38-2.94,9.47-2.94,2.77,0,5.1.51,6.98,1.54,1.92.98,3.41,2.3,4.48,3.97,1.11,1.62,1.83,3.41,2.18,5.38l-5.63.38c-.26-1.2-.73-2.24-1.41-3.14-.68-.94-1.58-1.66-2.69-2.18-1.11-.56-2.43-.83-3.97-.83-2.43,0-4.22.47-5.38,1.41-1.15.94-1.73,2.13-1.73,3.58,0,1.11.26,2.03.77,2.75.55.68,1.43,1.26,2.62,1.73,1.2.43,2.79.81,4.8,1.15,3.46.6,6.14,1.32,8.06,2.18,1.92.85,3.26,1.9,4.03,3.14.77,1.24,1.15,2.75,1.15,4.54,0,2.09-.6,3.88-1.79,5.38-1.15,1.45-2.73,2.56-4.74,3.33-1.96.77-4.2,1.15-6.72,1.15ZM330.28,269c-3.07,0-5.36-.7-6.85-2.11-1.45-1.41-2.18-3.61-2.18-6.59v-33.15h5.38v33.02c0,1.54.34,2.6,1.02,3.2.68.6,1.73.9,3.14.9h4.86v4.74h-5.38ZM316.27,239.82v-4.74h19.39v4.74h-19.39ZM349.8,269.77c-3.03,0-5.61-.49-7.74-1.47-2.09-.98-3.73-2.32-4.93-4.03-1.15-1.75-1.81-3.73-1.98-5.95l5.63-.38c.34,2.05,1.22,3.69,2.62,4.93,1.41,1.2,3.54,1.79,6.4,1.79,2.3,0,4.14-.36,5.5-1.09,1.41-.77,2.11-1.98,2.11-3.65,0-.9-.21-1.64-.64-2.24-.43-.6-1.26-1.11-2.5-1.54-1.24-.47-3.07-.92-5.51-1.34-3.24-.6-5.8-1.32-7.68-2.18-1.83-.9-3.16-1.98-3.97-3.26-.77-1.32-1.15-2.88-1.15-4.67,0-3.03,1.11-5.5,3.33-7.42,2.22-1.96,5.38-2.94,9.47-2.94,2.77,0,5.1.51,6.98,1.54,1.92.98,3.41,2.3,4.48,3.97,1.11,1.62,1.83,3.41,2.18,5.38l-5.63.38c-.26-1.2-.73-2.24-1.41-3.14-.68-.94-1.58-1.66-2.69-2.18-1.11-.56-2.43-.83-3.97-.83-2.43,0-4.22.47-5.38,1.41-1.15.94-1.73,2.13-1.73,3.58,0,1.11.26,2.03.77,2.75.55.68,1.43,1.26,2.62,1.73,1.19.43,2.79.81,4.8,1.15,3.46.6,6.14,1.32,8.07,2.18,1.92.85,3.26,1.9,4.03,3.14.77,1.24,1.15,2.75,1.15,4.54,0,2.09-.6,3.88-1.79,5.38-1.15,1.45-2.73,2.56-4.74,3.33-1.96.77-4.2,1.15-6.72,1.15Z"/>
</svg>