<?xml version="1.0" encoding="UTF-8"?>
<svg id="Layer_1" data-name="Layer 1" xmlns="http://www.w3.org/2000/svg" viewBox="0 0 622 603">
  <defs>
    <style>
      .cls-1, .cls-2 {
        fill: none;
      }

      .cls-3 {
        fill: #fff;
      }

      .cls-4 {
        fill: #4f7cac;
      }

      .cls-2 {
        stroke: #000;
        stroke-width: 7px;
      }
    </style>
  </defs>
  <rect class="cls-1" width="622" height="603"/>
  <line class="cls-2" x1="120.79" y1="466.28" x2="291.79" y2="327.28"/>
  <line class="cls-2" x1="120.79" y1="466.28" x2="291.79" y2="327.28"/>
  <path class="cls-4" d="M387.78,156.91c6.03-15.11,27.41-15.11,33.44,0l28.21,70.71c2.63,6.59,8.89,11.03,15.98,11.32l78.12,3.2c16.94.69,23.61,22.28,10.02,32.42l-59.3,44.22c-6.05,4.51-8.64,12.31-6.5,19.54l20.61,69.67c4.69,15.86-12.7,29.12-26.75,20.4l-67.62-41.95c-5.81-3.61-13.17-3.61-18.98,0l-67.62,41.95c-14.05,8.72-31.44-4.54-26.75-20.4l20.61-69.67c2.14-7.23-.46-15.03-6.5-19.54l-59.3-44.22c-13.59-10.13-6.92-31.72,10.02-32.42l78.12-3.2c7.09-.29,13.35-4.72,15.98-11.32l28.21-70.71Z"/>
  <path class="cls-3" d="M345.67,311.77c-2.35,0-4.44-.51-6.27-1.54-1.83-1.07-3.24-2.52-4.22-4.35l-.19,5.12h-4.86v-45.44h5.38v16.26c.85-1.41,2.18-2.67,3.97-3.78,1.79-1.15,3.86-1.73,6.21-1.73,2.99,0,5.57.72,7.74,2.18,2.18,1.45,3.86,3.5,5.06,6.14,1.2,2.65,1.79,5.78,1.79,9.41s-.6,6.76-1.79,9.41c-1.19,2.64-2.88,4.69-5.06,6.14-2.18,1.45-4.76,2.18-7.74,2.18ZM345.35,306.65c2.86,0,5.12-1.13,6.78-3.39,1.66-2.26,2.5-5.33,2.5-9.22s-.83-7-2.5-9.22c-1.66-2.26-3.88-3.39-6.66-3.39-2.09,0-3.88.51-5.38,1.54-1.49.98-2.64,2.41-3.46,4.29-.77,1.88-1.15,4.14-1.15,6.78s.38,4.8,1.15,6.72c.81,1.88,1.94,3.33,3.39,4.35,1.49,1.02,3.26,1.54,5.31,1.54ZM376.33,311.77c-3.11,0-5.85-.73-8.19-2.18-2.35-1.45-4.16-3.5-5.44-6.14-1.28-2.69-1.92-5.82-1.92-9.41s.64-6.76,1.92-9.41c1.28-2.64,3.09-4.69,5.44-6.14,2.35-1.45,5.08-2.18,8.19-2.18s5.82.72,8.13,2.18c2.35,1.45,4.16,3.5,5.44,6.14,1.28,2.65,1.92,5.78,1.92,9.41s-.64,6.72-1.92,9.41c-1.28,2.64-3.09,4.69-5.44,6.14-2.3,1.45-5.01,2.18-8.13,2.18ZM376.33,306.65c3.11,0,5.53-1.11,7.23-3.33,1.75-2.26,2.62-5.36,2.62-9.28s-.88-7-2.62-9.22c-1.71-2.26-4.12-3.39-7.23-3.39s-5.55,1.13-7.3,3.39c-1.75,2.22-2.62,5.29-2.62,9.22s.87,7.02,2.62,9.28c1.75,2.22,4.18,3.33,7.3,3.33ZM407.91,311.77c-3.11,0-5.85-.73-8.19-2.18-2.35-1.45-4.16-3.5-5.44-6.14-1.28-2.69-1.92-5.82-1.92-9.41s.64-6.76,1.92-9.41c1.28-2.64,3.09-4.69,5.44-6.14,2.35-1.45,5.08-2.18,8.19-2.18s5.82.72,8.13,2.18c2.35,1.45,4.16,3.5,5.44,6.14,1.28,2.65,1.92,5.78,1.92,9.41s-.64,6.72-1.92,9.41c-1.28,2.64-3.09,4.69-5.44,6.14-2.3,1.45-5.01,2.18-8.13,2.18ZM407.91,306.65c3.12,0,5.53-1.11,7.23-3.33,1.75-2.26,2.62-5.36,2.62-9.28s-.88-7-2.62-9.22c-1.71-2.26-4.12-3.39-7.23-3.39s-5.55,1.13-7.3,3.39c-1.75,2.22-2.62,5.29-2.62,9.22s.88,7.02,2.62,9.28c1.75,2.22,4.18,3.33,7.3,3.33ZM426.24,311v-45.44h5.38v29.76l16.51-18.24h7.17l-13.38,14.4,13.95,19.52h-6.53l-11.07-15.87-6.66,7.04v8.83h-5.38ZM468.68,311.77c-3.03,0-5.61-.49-7.74-1.47-2.09-.98-3.73-2.32-4.93-4.03-1.15-1.75-1.81-3.73-1.98-5.95l5.63-.38c.34,2.05,1.22,3.69,2.62,4.93,1.41,1.2,3.54,1.79,6.4,1.79,2.3,0,4.14-.36,5.5-1.09,1.41-.77,2.11-1.98,2.11-3.65,0-.9-.21-1.64-.64-2.24-.43-.6-1.26-1.11-2.5-1.54-1.24-.47-3.07-.92-5.5-1.34-3.24-.6-5.8-1.32-7.68-2.18-1.83-.9-3.16-1.98-3.97-3.26-.77-1.32-1.15-2.88-1.15-4.67,0-3.03,1.11-5.5,3.33-7.42,2.22-1.96,5.38-2.94,9.47-2.94,2.77,0,5.1.51,6.98,1.54,1.92.98,3.41,2.3,4.48,3.97,1.11,1.62,1.83,3.41,2.18,5.38l-5.63.38c-.26-1.19-.73-2.24-1.41-3.14-.68-.94-1.58-1.66-2.69-2.18-1.11-.55-2.43-.83-3.97-.83-2.43,0-4.22.47-5.38,1.41-1.15.94-1.73,2.13-1.73,3.58,0,1.11.26,2.03.77,2.75.56.68,1.43,1.26,2.62,1.73,1.19.43,2.79.81,4.8,1.15,3.46.6,6.14,1.32,8.06,2.18,1.92.85,3.26,1.9,4.03,3.14.77,1.24,1.15,2.75,1.15,4.54,0,2.09-.6,3.88-1.79,5.38-1.15,1.45-2.73,2.56-4.74,3.33-1.96.77-4.2,1.15-6.72,1.15Z"/>
</svg>