<svg width="622" height="603" viewBox="0 0 622 603" fill="none" xmlns="http://www.w3.org/2000/svg">
<rect width="622" height="603" fill="white"/>
<line x1="311.975" y1="165.965" x2="313.025" y2="269.979" stroke="black" stroke-width="7"/>
<rect x="187" y="283.007" width="248" height="154" rx="27" fill="#D9D9D9"/>
<path d="M237.12 382.007V348.087H242.048L242.24 356.663L241.472 356.407C241.856 354.53 242.517 352.93 243.456 351.607C244.437 350.242 245.632 349.196 247.04 348.471C248.448 347.703 250.005 347.319 251.712 347.319C254.656 347.319 257.045 348.13 258.88 349.751C260.757 351.372 261.931 353.634 262.4 356.535L261.376 356.471C261.717 354.508 262.336 352.866 263.232 351.543C264.171 350.178 265.365 349.132 266.816 348.407C268.267 347.681 269.931 347.319 271.808 347.319C274.24 347.319 276.288 347.831 277.952 348.855C279.616 349.836 280.875 351.287 281.728 353.207C282.581 355.127 283.008 357.452 283.008 360.183V382.007H277.632V361.335C277.632 358.263 277.035 355.959 275.84 354.423C274.645 352.844 272.875 352.055 270.528 352.055C268.949 352.055 267.563 352.439 266.368 353.207C265.216 353.975 264.32 355.084 263.68 356.535C263.04 357.943 262.72 359.671 262.72 361.719V382.007H257.344V361.719C257.344 358.69 256.811 356.322 255.744 354.615C254.677 352.908 252.885 352.055 250.368 352.055C248.789 352.055 247.403 352.439 246.208 353.207C245.056 353.975 244.139 355.084 243.456 356.535C242.816 357.986 242.496 359.714 242.496 361.719V382.007H237.12ZM298.964 382.775C295.593 382.775 292.884 381.644 290.836 379.383C288.83 377.079 287.828 373.922 287.828 369.911V348.087H293.204V368.439C293.204 371.724 293.78 374.156 294.932 375.735C296.126 377.271 297.94 378.039 300.372 378.039C303.06 378.039 305.172 377.186 306.708 375.479C308.244 373.73 309.012 371.34 309.012 368.311V348.087H314.388V382.007H309.268V373.623L310.1 374.071C309.417 376.844 308.116 378.999 306.196 380.535C304.276 382.028 301.865 382.775 298.964 382.775ZM331.887 382.775C328.858 382.775 326.276 382.284 324.143 381.303C322.052 380.322 320.41 378.978 319.215 377.271C318.063 375.522 317.402 373.538 317.231 371.319L322.863 370.935C323.204 372.983 324.079 374.626 325.487 375.863C326.895 377.058 329.028 377.655 331.887 377.655C334.191 377.655 336.026 377.292 337.391 376.567C338.799 375.799 339.503 374.583 339.503 372.919C339.503 372.023 339.29 371.276 338.863 370.679C338.436 370.082 337.604 369.57 336.367 369.143C335.13 368.674 333.295 368.226 330.863 367.799C327.62 367.202 325.06 366.476 323.183 365.623C321.348 364.727 320.026 363.639 319.215 362.359C318.447 361.036 318.063 359.479 318.063 357.687C318.063 354.658 319.172 352.183 321.391 350.263C323.61 348.3 326.767 347.319 330.863 347.319C333.636 347.319 335.962 347.831 337.839 348.855C339.759 349.836 341.252 351.159 342.319 352.823C343.428 354.444 344.154 356.236 344.495 358.199L338.863 358.583C338.607 357.388 338.138 356.343 337.455 355.447C336.772 354.508 335.876 353.783 334.767 353.271C333.658 352.716 332.335 352.439 330.799 352.439C328.367 352.439 326.575 352.908 325.423 353.847C324.271 354.786 323.695 355.98 323.695 357.431C323.695 358.54 323.951 359.458 324.463 360.183C325.018 360.866 325.892 361.442 327.087 361.911C328.282 362.338 329.882 362.722 331.887 363.063C335.343 363.66 338.031 364.386 339.951 365.239C341.871 366.092 343.215 367.138 343.983 368.375C344.751 369.612 345.135 371.127 345.135 372.919C345.135 375.01 344.538 376.802 343.343 378.295C342.191 379.746 340.612 380.855 338.607 381.623C336.644 382.391 334.404 382.775 331.887 382.775ZM347.992 382.007V348.087H353.368V382.007H347.992ZM347.864 342.775V336.503H353.496V342.775H347.864ZM371.761 382.775C368.603 382.775 365.851 382.05 363.505 380.599C361.201 379.148 359.409 377.1 358.129 374.455C356.849 371.767 356.209 368.631 356.209 365.047C356.209 361.463 356.849 358.348 358.129 355.703C359.409 353.058 361.201 351.01 363.505 349.559C365.851 348.065 368.603 347.319 371.761 347.319C374.363 347.319 376.667 347.788 378.673 348.727C380.721 349.623 382.385 350.946 383.665 352.695C384.945 354.444 385.777 356.578 386.161 359.095L380.529 359.479C380.145 357.218 379.163 355.49 377.585 354.295C376.006 353.058 374.065 352.439 371.761 352.439C368.646 352.439 366.214 353.57 364.465 355.831C362.715 358.05 361.841 361.122 361.841 365.047C361.841 368.972 362.715 372.066 364.465 374.327C366.214 376.546 368.646 377.655 371.761 377.655C374.065 377.655 376.006 377.015 377.585 375.735C379.163 374.455 380.145 372.535 380.529 369.975L386.161 370.359C385.777 372.876 384.945 375.074 383.665 376.951C382.385 378.786 380.721 380.215 378.673 381.239C376.667 382.263 374.363 382.775 371.761 382.775Z" fill="black"/>
</svg>
