<svg width="622" height="603" viewBox="0 0 622 603" fill="none" xmlns="http://www.w3.org/2000/svg">
<rect width="622" height="603" fill="white"/>
<path d="M187.582 189.186C201.514 155.315 249.486 155.315 263.418 189.186L271.163 208.016C277.26 222.84 291.437 232.752 307.453 233.388L321.483 233.945C360.392 235.491 375.435 285.317 343.881 308.136L339.311 311.441C325.112 321.709 319.009 339.865 324.121 356.625L326.887 365.696C337.848 401.631 298.726 432.158 266.534 412.789L246.637 400.818C233.632 392.993 217.368 392.993 204.363 400.818L184.466 412.789C152.274 432.158 113.152 401.631 124.113 365.696L126.879 356.625C131.991 339.865 125.887 321.709 111.689 311.441L107.119 308.136C75.565 285.317 90.6078 235.491 129.517 233.945L143.547 233.388C159.563 232.752 173.74 222.84 179.837 208.016L187.582 189.186Z" fill="#D9D9D9"/>
<path d="M130.12 314V280.08H134.856L135.112 288.656L134.6 288.464C135.027 285.563 135.944 283.451 137.352 282.128C138.803 280.763 140.723 280.08 143.112 280.08H146.44V285.2H143.176C141.469 285.2 140.04 285.52 138.888 286.16C137.779 286.757 136.925 287.675 136.328 288.912C135.773 290.107 135.496 291.643 135.496 293.52V314H130.12ZM156.48 314.768C152.981 314.768 150.186 313.957 148.096 312.336C146.048 310.715 145.024 308.453 145.024 305.552C145.024 302.651 145.877 300.368 147.584 298.704C149.29 297.04 152 295.867 155.712 295.184L167.744 292.944C167.744 290.085 167.061 287.952 165.696 286.544C164.373 285.136 162.368 284.432 159.68 284.432C157.333 284.432 155.477 284.965 154.112 286.032C152.746 287.056 151.808 288.549 151.296 290.512L145.6 290.064C146.24 286.864 147.776 284.283 150.208 282.32C152.682 280.315 155.84 279.312 159.68 279.312C164.032 279.312 167.36 280.549 169.664 283.024C171.968 285.456 173.12 288.827 173.12 293.136V307.152C173.12 307.92 173.248 308.475 173.504 308.816C173.802 309.115 174.272 309.264 174.912 309.264H176.256V314C176.085 314.043 175.808 314.064 175.424 314.064C175.04 314.107 174.634 314.128 174.208 314.128C172.672 314.128 171.413 313.893 170.432 313.424C169.493 312.912 168.81 312.144 168.384 311.12C167.957 310.053 167.744 308.667 167.744 306.96L168.384 307.088C168.085 308.539 167.36 309.861 166.208 311.056C165.056 312.208 163.626 313.125 161.92 313.808C160.213 314.448 158.4 314.768 156.48 314.768ZM156.992 310.032C159.253 310.032 161.173 309.605 162.752 308.752C164.373 307.856 165.61 306.661 166.464 305.168C167.317 303.632 167.744 301.925 167.744 300.048V297.616L156.736 299.664C154.432 300.091 152.832 300.752 151.936 301.648C151.082 302.501 150.656 303.632 150.656 305.04C150.656 306.619 151.21 307.856 152.32 308.752C153.472 309.605 155.029 310.032 156.992 310.032ZM177.848 314V280.08H182.776L182.968 288.72L182.328 288.144C182.754 286.139 183.501 284.496 184.568 283.216C185.634 281.893 186.914 280.912 188.408 280.272C189.944 279.632 191.586 279.312 193.336 279.312C195.938 279.312 198.072 279.888 199.736 281.04C201.442 282.192 202.701 283.749 203.512 285.712C204.365 287.632 204.792 289.787 204.792 292.176V314H199.416V293.712C199.416 291.621 199.16 289.872 198.648 288.464C198.178 287.013 197.41 285.925 196.344 285.2C195.277 284.432 193.89 284.048 192.184 284.048C189.581 284.048 187.426 284.88 185.72 286.544C184.056 288.165 183.224 290.555 183.224 293.712V314H177.848ZM221.837 314.768C218.893 314.768 216.333 314.043 214.157 312.592C212.024 311.141 210.381 309.093 209.229 306.448C208.077 303.803 207.501 300.667 207.501 297.04C207.501 293.413 208.077 290.277 209.229 287.632C210.381 284.987 212.024 282.939 214.157 281.488C216.333 280.037 218.893 279.312 221.837 279.312C224.098 279.312 226.168 279.803 228.045 280.784C229.922 281.723 231.33 283.067 232.269 284.816V268.56H237.645V314H232.781L232.589 308.88C231.65 310.715 230.221 312.165 228.301 313.232C226.381 314.256 224.226 314.768 221.837 314.768ZM222.925 309.648C224.93 309.648 226.616 309.136 227.981 308.112C229.389 307.088 230.456 305.637 231.181 303.76C231.906 301.84 232.269 299.6 232.269 297.04C232.269 294.395 231.906 292.133 231.181 290.256C230.456 288.379 229.389 286.949 227.981 285.968C226.616 284.944 224.93 284.432 222.925 284.432C219.938 284.432 217.549 285.563 215.757 287.824C214.008 290.043 213.133 293.115 213.133 297.04C213.133 300.923 214.008 303.995 215.757 306.256C217.549 308.517 219.938 309.648 222.925 309.648ZM256.011 314.768C252.896 314.768 250.165 314.043 247.819 312.592C245.472 311.141 243.659 309.093 242.379 306.448C241.099 303.76 240.459 300.624 240.459 297.04C240.459 293.413 241.099 290.277 242.379 287.632C243.659 284.987 245.472 282.939 247.819 281.488C250.165 280.037 252.896 279.312 256.011 279.312C259.125 279.312 261.835 280.037 264.139 281.488C266.485 282.939 268.299 284.987 269.579 287.632C270.859 290.277 271.499 293.413 271.499 297.04C271.499 300.624 270.859 303.76 269.579 306.448C268.299 309.093 266.485 311.141 264.139 312.592C261.835 314.043 259.125 314.768 256.011 314.768ZM256.011 309.648C259.125 309.648 261.536 308.539 263.243 306.32C264.992 304.059 265.867 300.965 265.867 297.04C265.867 293.115 264.992 290.043 263.243 287.824C261.536 285.563 259.125 284.432 256.011 284.432C252.896 284.432 250.464 285.563 248.715 287.824C246.965 290.043 246.091 293.115 246.091 297.04C246.091 300.965 246.965 304.059 248.715 306.32C250.464 308.539 252.896 309.648 256.011 309.648ZM274.345 314V280.08H279.273L279.465 288.656L278.697 288.4C279.081 286.523 279.742 284.923 280.681 283.6C281.662 282.235 282.857 281.189 284.265 280.464C285.673 279.696 287.23 279.312 288.937 279.312C291.881 279.312 294.27 280.123 296.105 281.744C297.982 283.365 299.156 285.627 299.625 288.528L298.601 288.464C298.942 286.501 299.561 284.859 300.457 283.536C301.396 282.171 302.59 281.125 304.041 280.4C305.492 279.675 307.156 279.312 309.033 279.312C311.465 279.312 313.513 279.824 315.177 280.848C316.841 281.829 318.1 283.28 318.953 285.2C319.806 287.12 320.233 289.445 320.233 292.176V314H314.857V293.328C314.857 290.256 314.26 287.952 313.065 286.416C311.87 284.837 310.1 284.048 307.753 284.048C306.174 284.048 304.788 284.432 303.593 285.2C302.441 285.968 301.545 287.077 300.905 288.528C300.265 289.936 299.945 291.664 299.945 293.712V314H294.569V293.712C294.569 290.683 294.036 288.315 292.969 286.608C291.902 284.901 290.11 284.048 287.593 284.048C286.014 284.048 284.628 284.432 283.433 285.2C282.281 285.968 281.364 287.077 280.681 288.528C280.041 289.979 279.721 291.707 279.721 293.712V314H274.345Z" fill="black"/>
<line x1="402.187" y1="247.006" x2="511.185" y2="181.006" stroke="black" stroke-width="7"/>
</svg>
