<svg width="622" height="603" viewBox="0 0 622 603" fill="none" xmlns="http://www.w3.org/2000/svg">
<rect width="622" height="603" fill="white"/>
<line x1="120.792" y1="466.284" x2="291.792" y2="327.284" stroke="black" stroke-width="7"/>
<line x1="120.792" y1="466.284" x2="291.792" y2="327.284" stroke="black" stroke-width="7"/>
<path d="M387.781 156.91C393.808 141.803 415.192 141.803 421.219 156.91L449.427 227.622C452.057 234.215 458.317 238.647 465.409 238.937L543.526 242.137C560.465 242.831 567.14 264.418 553.549 274.552L494.25 318.768C488.205 323.276 485.61 331.074 487.749 338.304L508.359 407.974C513.051 423.835 495.664 437.095 481.609 428.376L413.989 386.427C408.177 382.821 400.823 382.821 395.011 386.427L327.391 428.376C313.336 437.095 295.949 423.835 300.641 407.974L321.251 338.304C323.39 331.074 320.795 323.276 314.75 318.768L255.451 274.552C241.86 264.418 248.535 242.831 265.474 242.137L343.591 238.937C350.683 238.647 356.943 234.215 359.573 227.622L387.781 156.91Z" fill="#D9D9D9"/>
<path d="M345.672 311.768C343.325 311.768 341.235 311.256 339.4 310.232C337.565 309.165 336.157 307.715 335.176 305.88L334.984 311H330.12V265.56H335.496V281.816C336.349 280.408 337.672 279.149 339.464 278.04C341.256 276.888 343.325 276.312 345.672 276.312C348.659 276.312 351.24 277.037 353.416 278.488C355.592 279.939 357.277 281.987 358.472 284.632C359.667 287.277 360.264 290.413 360.264 294.04C360.264 297.667 359.667 300.803 358.472 303.448C357.277 306.093 355.592 308.141 353.416 309.592C351.24 311.043 348.659 311.768 345.672 311.768ZM345.352 306.648C348.211 306.648 350.472 305.517 352.136 303.256C353.8 300.995 354.632 297.923 354.632 294.04C354.632 290.115 353.8 287.043 352.136 284.824C350.472 282.563 348.253 281.432 345.48 281.432C343.389 281.432 341.597 281.944 340.104 282.968C338.611 283.949 337.459 285.379 336.648 287.256C335.88 289.133 335.496 291.395 335.496 294.04C335.496 296.6 335.88 298.84 336.648 300.76C337.459 302.637 338.589 304.088 340.04 305.112C341.533 306.136 343.304 306.648 345.352 306.648ZM376.326 311.768C373.211 311.768 370.48 311.043 368.134 309.592C365.787 308.141 363.974 306.093 362.694 303.448C361.414 300.76 360.774 297.624 360.774 294.04C360.774 290.413 361.414 287.277 362.694 284.632C363.974 281.987 365.787 279.939 368.134 278.488C370.48 277.037 373.211 276.312 376.326 276.312C379.44 276.312 382.15 277.037 384.454 278.488C386.8 279.939 388.614 281.987 389.894 284.632C391.174 287.277 391.814 290.413 391.814 294.04C391.814 297.624 391.174 300.76 389.894 303.448C388.614 306.093 386.8 308.141 384.454 309.592C382.15 311.043 379.44 311.768 376.326 311.768ZM376.326 306.648C379.44 306.648 381.851 305.539 383.558 303.32C385.307 301.059 386.182 297.965 386.182 294.04C386.182 290.115 385.307 287.043 383.558 284.824C381.851 282.563 379.44 281.432 376.326 281.432C373.211 281.432 370.779 282.563 369.03 284.824C367.28 287.043 366.406 290.115 366.406 294.04C366.406 297.965 367.28 301.059 369.03 303.32C370.779 305.539 373.211 306.648 376.326 306.648ZM407.908 311.768C404.793 311.768 402.063 311.043 399.716 309.592C397.369 308.141 395.556 306.093 394.276 303.448C392.996 300.76 392.356 297.624 392.356 294.04C392.356 290.413 392.996 287.277 394.276 284.632C395.556 281.987 397.369 279.939 399.716 278.488C402.063 277.037 404.793 276.312 407.908 276.312C411.023 276.312 413.732 277.037 416.036 278.488C418.383 279.939 420.196 281.987 421.476 284.632C422.756 287.277 423.396 290.413 423.396 294.04C423.396 297.624 422.756 300.76 421.476 303.448C420.196 306.093 418.383 308.141 416.036 309.592C413.732 311.043 411.023 311.768 407.908 311.768ZM407.908 306.648C411.023 306.648 413.433 305.539 415.14 303.32C416.889 301.059 417.764 297.965 417.764 294.04C417.764 290.115 416.889 287.043 415.14 284.824C413.433 282.563 411.023 281.432 407.908 281.432C404.793 281.432 402.361 282.563 400.612 284.824C398.863 287.043 397.988 290.115 397.988 294.04C397.988 297.965 398.863 301.059 400.612 303.32C402.361 305.539 404.793 306.648 407.908 306.648ZM426.242 311V265.56H431.618V295.32L448.13 277.08H455.299L441.922 291.48L455.875 311H449.346L438.274 295.128L431.618 302.168V311H426.242ZM468.677 311.768C465.648 311.768 463.066 311.277 460.933 310.296C458.842 309.315 457.2 307.971 456.005 306.264C454.853 304.515 454.192 302.531 454.021 300.312L459.653 299.928C459.994 301.976 460.869 303.619 462.277 304.856C463.685 306.051 465.818 306.648 468.677 306.648C470.981 306.648 472.816 306.285 474.181 305.56C475.589 304.792 476.293 303.576 476.293 301.912C476.293 301.016 476.08 300.269 475.653 299.672C475.226 299.075 474.394 298.563 473.157 298.136C471.92 297.667 470.085 297.219 467.653 296.792C464.41 296.195 461.85 295.469 459.973 294.616C458.138 293.72 456.816 292.632 456.005 291.352C455.237 290.029 454.853 288.472 454.853 286.68C454.853 283.651 455.962 281.176 458.181 279.256C460.4 277.293 463.557 276.312 467.653 276.312C470.426 276.312 472.752 276.824 474.629 277.848C476.549 278.829 478.042 280.152 479.109 281.816C480.218 283.437 480.944 285.229 481.285 287.192L475.653 287.576C475.397 286.381 474.928 285.336 474.245 284.44C473.562 283.501 472.666 282.776 471.557 282.264C470.448 281.709 469.125 281.432 467.589 281.432C465.157 281.432 463.365 281.901 462.213 282.84C461.061 283.779 460.485 284.973 460.485 286.424C460.485 287.533 460.741 288.451 461.253 289.176C461.808 289.859 462.682 290.435 463.877 290.904C465.072 291.331 466.672 291.715 468.677 292.056C472.133 292.653 474.821 293.379 476.741 294.232C478.661 295.085 480.005 296.131 480.773 297.368C481.541 298.605 481.925 300.12 481.925 301.912C481.925 304.003 481.328 305.795 480.133 307.288C478.981 308.739 477.402 309.848 475.397 310.616C473.434 311.384 471.194 311.768 468.677 311.768Z" fill="black"/>
</svg>
