<svg width="622" height="603" viewBox="0 0 622 603" fill="none" xmlns="http://www.w3.org/2000/svg">
<rect width="622" height="603" fill="white"/>
<line x1="98.8804" y1="148.048" x2="284.743" y2="266.442" stroke="black" stroke-width="7"/>
<circle cx="409.5" cy="337.5" r="114.5" fill="#D9D9D9"/>
<path d="M326.12 369.6V326.08H331.112L331.24 333.376L330.472 332.992C331.325 330.475 332.733 328.576 334.696 327.296C336.701 325.973 339.005 325.312 341.608 325.312C344.979 325.312 347.731 326.144 349.864 327.808C352.04 329.472 353.64 331.648 354.664 334.336C355.731 337.024 356.264 339.925 356.264 343.04C356.264 346.155 355.731 349.056 354.664 351.744C353.64 354.432 352.04 356.608 349.864 358.272C347.731 359.936 344.979 360.768 341.608 360.768C339.859 360.768 338.216 360.469 336.68 359.872C335.187 359.275 333.907 358.443 332.84 357.376C331.816 356.309 331.112 355.051 330.728 353.6L331.496 352.704V369.6H326.12ZM341.096 355.648C344.04 355.648 346.365 354.539 348.072 352.32C349.779 350.101 350.632 347.008 350.632 343.04C350.632 339.072 349.779 335.979 348.072 333.76C346.365 331.541 344.04 330.432 341.096 330.432C339.133 330.432 337.427 330.901 335.976 331.84C334.568 332.779 333.459 334.187 332.648 336.064C331.88 337.941 331.496 340.267 331.496 343.04C331.496 345.813 331.88 348.139 332.648 350.016C333.416 351.893 334.525 353.301 335.976 354.24C337.427 355.179 339.133 355.648 341.096 355.648ZM372.326 360.768C369.126 360.768 366.352 360.043 364.006 358.592C361.702 357.141 359.91 355.093 358.63 352.448C357.392 349.76 356.774 346.624 356.774 343.04C356.774 339.456 357.392 336.341 358.63 333.696C359.91 331.051 361.68 329.003 363.942 327.552C366.246 326.059 368.955 325.312 372.07 325.312C375.014 325.312 377.616 326.016 379.878 327.424C382.139 328.789 383.888 330.795 385.126 333.44C386.406 336.085 387.046 339.307 387.046 343.104V344.704H362.406C362.619 348.331 363.579 351.061 365.286 352.896C367.035 354.731 369.382 355.648 372.326 355.648C374.544 355.648 376.358 355.136 377.766 354.112C379.216 353.045 380.219 351.659 380.774 349.952L386.534 350.4C385.638 353.429 383.931 355.925 381.414 357.888C378.939 359.808 375.91 360.768 372.326 360.768ZM362.406 339.968H381.158C380.902 336.683 379.942 334.272 378.278 332.736C376.656 331.2 374.587 330.432 372.07 330.432C369.467 330.432 367.312 331.243 365.606 332.864C363.942 334.443 362.875 336.811 362.406 339.968ZM403.096 360.768C399.981 360.768 397.25 360.043 394.904 358.592C392.557 357.141 390.744 355.093 389.464 352.448C388.184 349.76 387.544 346.624 387.544 343.04C387.544 339.413 388.184 336.277 389.464 333.632C390.744 330.987 392.557 328.939 394.904 327.488C397.25 326.037 399.981 325.312 403.096 325.312C406.21 325.312 408.92 326.037 411.224 327.488C413.57 328.939 415.384 330.987 416.664 333.632C417.944 336.277 418.584 339.413 418.584 343.04C418.584 346.624 417.944 349.76 416.664 352.448C415.384 355.093 413.57 357.141 411.224 358.592C408.92 360.043 406.21 360.768 403.096 360.768ZM403.096 355.648C406.21 355.648 408.621 354.539 410.328 352.32C412.077 350.059 412.952 346.965 412.952 343.04C412.952 339.115 412.077 336.043 410.328 333.824C408.621 331.563 406.21 330.432 403.096 330.432C399.981 330.432 397.549 331.563 395.8 333.824C394.05 336.043 393.176 339.115 393.176 343.04C393.176 346.965 394.05 350.059 395.8 352.32C397.549 354.539 399.981 355.648 403.096 355.648ZM421.43 369.6V326.08H426.422L426.55 333.376L425.782 332.992C426.635 330.475 428.043 328.576 430.006 327.296C432.011 325.973 434.315 325.312 436.918 325.312C440.289 325.312 443.041 326.144 445.174 327.808C447.35 329.472 448.95 331.648 449.974 334.336C451.041 337.024 451.574 339.925 451.574 343.04C451.574 346.155 451.041 349.056 449.974 351.744C448.95 354.432 447.35 356.608 445.174 358.272C443.041 359.936 440.289 360.768 436.918 360.768C435.169 360.768 433.526 360.469 431.99 359.872C430.497 359.275 429.217 358.443 428.15 357.376C427.126 356.309 426.422 355.051 426.038 353.6L426.806 352.704V369.6H421.43ZM436.406 355.648C439.35 355.648 441.675 354.539 443.382 352.32C445.089 350.101 445.942 347.008 445.942 343.04C445.942 339.072 445.089 335.979 443.382 333.76C441.675 331.541 439.35 330.432 436.406 330.432C434.443 330.432 432.737 330.901 431.286 331.84C429.878 332.779 428.769 334.187 427.958 336.064C427.19 337.941 426.806 340.267 426.806 343.04C426.806 345.813 427.19 348.139 427.958 350.016C428.726 351.893 429.835 353.301 431.286 354.24C432.737 355.179 434.443 355.648 436.406 355.648ZM461.356 360C459.393 360 457.793 359.488 456.556 358.464C455.319 357.44 454.7 355.819 454.7 353.6V314.56H460.076V353.152C460.076 353.835 460.247 354.368 460.588 354.752C460.972 355.093 461.505 355.264 462.188 355.264H465.132V360H461.356ZM480.156 360.768C476.956 360.768 474.182 360.043 471.836 358.592C469.532 357.141 467.74 355.093 466.46 352.448C465.222 349.76 464.604 346.624 464.604 343.04C464.604 339.456 465.222 336.341 466.46 333.696C467.74 331.051 469.51 329.003 471.772 327.552C474.076 326.059 476.785 325.312 479.9 325.312C482.844 325.312 485.446 326.016 487.708 327.424C489.969 328.789 491.718 330.795 492.956 333.44C494.236 336.085 494.876 339.307 494.876 343.104V344.704H470.236C470.449 348.331 471.409 351.061 473.116 352.896C474.865 354.731 477.212 355.648 480.156 355.648C482.374 355.648 484.188 355.136 485.596 354.112C487.046 353.045 488.049 351.659 488.604 349.952L494.364 350.4C493.468 353.429 491.761 355.925 489.244 357.888C486.769 359.808 483.74 360.768 480.156 360.768ZM470.236 339.968H488.988C488.732 336.683 487.772 334.272 486.108 332.736C484.486 331.2 482.417 330.432 479.9 330.432C477.297 330.432 475.142 331.243 473.436 332.864C471.772 334.443 470.705 336.811 470.236 339.968Z" fill="black"/>
</svg>
