<svg width="979" height="603" viewBox="0 0 979 603" fill="none" xmlns="http://www.w3.org/2000/svg">
<rect width="979" height="603" fill="white"/>
<ellipse cx="490" cy="302" rx="335" ry="161" fill="#D9D9D9"/>
<path d="M216.832 335V266.84H225.088V335H216.832ZM235.773 335V284.12H243.165L243.453 297.08L242.493 296.216C243.133 293.208 244.253 290.744 245.853 288.824C247.453 286.84 249.373 285.368 251.613 284.408C253.917 283.448 256.381 282.968 259.005 282.968C262.909 282.968 266.109 283.832 268.605 285.56C271.165 287.288 273.053 289.624 274.269 292.568C275.549 295.448 276.189 298.68 276.189 302.264V335H268.125V304.568C268.125 301.432 267.741 298.808 266.973 296.696C266.269 294.52 265.117 292.888 263.517 291.8C261.917 290.648 259.837 290.072 257.277 290.072C253.373 290.072 250.141 291.32 247.581 293.816C245.085 296.248 243.837 299.832 243.837 304.568V335H235.773ZM301.757 336.152C297.341 336.152 293.501 335.064 290.237 332.888C287.037 330.712 284.573 327.64 282.845 323.672C281.117 319.704 280.253 315 280.253 309.56C280.253 304.12 281.117 299.416 282.845 295.448C284.573 291.48 287.037 288.408 290.237 286.232C293.501 284.056 297.341 282.968 301.757 282.968C305.149 282.968 308.253 283.704 311.069 285.176C313.885 286.584 315.997 288.6 317.405 291.224V266.84H325.469V335H318.173L317.885 327.32C316.477 330.072 314.333 332.248 311.453 333.848C308.573 335.384 305.341 336.152 301.757 336.152ZM303.389 328.472C306.397 328.472 308.925 327.704 310.973 326.168C313.085 324.632 314.685 322.456 315.773 319.64C316.861 316.76 317.405 313.4 317.405 309.56C317.405 305.592 316.861 302.2 315.773 299.384C314.685 296.568 313.085 294.424 310.973 292.952C308.925 291.416 306.397 290.648 303.389 290.648C298.909 290.648 295.325 292.344 292.637 295.736C290.013 299.064 288.701 303.672 288.701 309.56C288.701 315.384 290.013 319.992 292.637 323.384C295.325 326.776 298.909 328.472 303.389 328.472ZM353.017 336.152C348.217 336.152 344.057 335.064 340.537 332.888C337.081 330.712 334.393 327.64 332.473 323.672C330.617 319.64 329.689 314.936 329.689 309.56C329.689 304.184 330.617 299.512 332.473 295.544C334.393 291.576 337.049 288.504 340.441 286.328C343.897 284.088 347.961 282.968 352.633 282.968C357.049 282.968 360.953 284.024 364.345 286.136C367.737 288.184 370.361 291.192 372.217 295.16C374.137 299.128 375.097 303.96 375.097 309.656V312.056H338.137C338.457 317.496 339.897 321.592 342.457 324.344C345.081 327.096 348.601 328.472 353.017 328.472C356.345 328.472 359.065 327.704 361.177 326.168C363.353 324.568 364.857 322.488 365.689 319.928L374.329 320.6C372.985 325.144 370.425 328.888 366.649 331.832C362.937 334.712 358.393 336.152 353.017 336.152ZM338.137 304.952H366.265C365.881 300.024 364.441 296.408 361.945 294.104C359.513 291.8 356.409 290.648 352.633 290.648C348.729 290.648 345.497 291.864 342.937 294.296C340.441 296.664 338.841 300.216 338.137 304.952ZM372.288 335L391.008 308.888L373.248 284.12H382.656L396 303.32L408.96 284.12H418.56L400.992 309.08L419.424 335H410.016L396 314.456L381.888 335H372.288ZM439.983 336.152C435.183 336.152 431.023 335.064 427.503 332.888C424.047 330.712 421.359 327.64 419.439 323.672C417.583 319.64 416.655 314.936 416.655 309.56C416.655 304.184 417.583 299.512 419.439 295.544C421.359 291.576 424.015 288.504 427.407 286.328C430.863 284.088 434.927 282.968 439.599 282.968C444.015 282.968 447.919 284.024 451.311 286.136C454.703 288.184 457.327 291.192 459.183 295.16C461.103 299.128 462.063 303.96 462.063 309.656V312.056H425.103C425.423 317.496 426.863 321.592 429.423 324.344C432.047 327.096 435.567 328.472 439.983 328.472C443.311 328.472 446.031 327.704 448.143 326.168C450.319 324.568 451.823 322.488 452.655 319.928L461.295 320.6C459.951 325.144 457.391 328.888 453.615 331.832C449.903 334.712 445.359 336.152 439.983 336.152ZM425.103 304.952H453.231C452.847 300.024 451.407 296.408 448.911 294.104C446.479 291.8 443.375 290.648 439.599 290.648C435.695 290.648 432.463 291.864 429.903 294.296C427.407 296.664 425.807 300.216 425.103 304.952ZM484.794 336.152C480.25 336.152 476.378 335.416 473.178 333.944C470.042 332.472 467.578 330.456 465.786 327.896C464.058 325.272 463.066 322.296 462.81 318.968L471.258 318.392C471.77 321.464 473.082 323.928 475.194 325.784C477.306 327.576 480.506 328.472 484.794 328.472C488.25 328.472 491.002 327.928 493.05 326.84C495.162 325.688 496.218 323.864 496.218 321.368C496.218 320.024 495.898 318.904 495.258 318.008C494.618 317.112 493.37 316.344 491.514 315.704C489.658 315 486.906 314.328 483.258 313.688C478.394 312.792 474.554 311.704 471.738 310.424C468.986 309.08 467.002 307.448 465.786 305.528C464.634 303.544 464.058 301.208 464.058 298.52C464.058 293.976 465.722 290.264 469.05 287.384C472.378 284.44 477.114 282.968 483.258 282.968C487.418 282.968 490.906 283.736 493.722 285.272C496.602 286.744 498.842 288.728 500.442 291.224C502.106 293.656 503.194 296.344 503.706 299.288L495.258 299.864C494.874 298.072 494.17 296.504 493.146 295.16C492.122 293.752 490.778 292.664 489.114 291.896C487.45 291.064 485.466 290.648 483.162 290.648C479.514 290.648 476.826 291.352 475.098 292.76C473.37 294.168 472.506 295.96 472.506 298.136C472.506 299.8 472.89 301.176 473.658 302.264C474.49 303.288 475.802 304.152 477.594 304.856C479.386 305.496 481.786 306.072 484.794 306.584C489.978 307.48 494.01 308.568 496.89 309.848C499.77 311.128 501.786 312.696 502.938 314.552C504.09 316.408 504.666 318.68 504.666 321.368C504.666 324.504 503.77 327.192 501.978 329.432C500.25 331.608 497.882 333.272 494.874 334.424C491.93 335.576 488.57 336.152 484.794 336.152ZM547.042 336.152C542.37 336.152 538.274 335.064 534.754 332.888C531.234 330.712 528.514 327.64 526.594 323.672C524.674 319.64 523.714 314.936 523.714 309.56C523.714 304.12 524.674 299.416 526.594 295.448C528.514 291.48 531.234 288.408 534.754 286.232C538.274 284.056 542.37 282.968 547.042 282.968C551.714 282.968 555.778 284.056 559.234 286.232C562.754 288.408 565.474 291.48 567.394 295.448C569.314 299.416 570.274 304.12 570.274 309.56C570.274 314.936 569.314 319.64 567.394 323.672C565.474 327.64 562.754 330.712 559.234 332.888C555.778 335.064 551.714 336.152 547.042 336.152ZM547.042 328.472C551.714 328.472 555.33 326.808 557.89 323.48C560.514 320.088 561.826 315.448 561.826 309.56C561.826 303.672 560.514 299.064 557.89 295.736C555.33 292.344 551.714 290.648 547.042 290.648C542.37 290.648 538.722 292.344 536.098 295.736C533.474 299.064 532.162 303.672 532.162 309.56C532.162 315.448 533.474 320.088 536.098 323.48C538.722 326.808 542.37 328.472 547.042 328.472ZM577.567 335V279.512C577.567 275.736 578.655 272.696 580.831 270.392C583.007 268.024 586.399 266.84 591.007 266.84H599.071V273.944H591.583C589.599 273.944 588.095 274.488 587.071 275.576C586.111 276.664 585.631 278.168 585.631 280.088V335H577.567ZM570.655 291.224V284.12H598.399V291.224H570.655ZM622.162 335V266.84H633.682L655.474 325.976L677.17 266.84H688.69V335H680.434V282.2L660.946 335H649.906L630.418 282.2V335H622.162ZM717.412 336.152C712.612 336.152 708.452 335.064 704.932 332.888C701.476 330.712 698.788 327.64 696.868 323.672C695.012 319.64 694.084 314.936 694.084 309.56C694.084 304.184 695.012 299.512 696.868 295.544C698.788 291.576 701.444 288.504 704.836 286.328C708.292 284.088 712.356 282.968 717.028 282.968C721.444 282.968 725.348 284.024 728.74 286.136C732.132 288.184 734.756 291.192 736.612 295.16C738.532 299.128 739.492 303.96 739.492 309.656V312.056H702.532C702.852 317.496 704.292 321.592 706.852 324.344C709.476 327.096 712.996 328.472 717.412 328.472C720.74 328.472 723.46 327.704 725.572 326.168C727.748 324.568 729.252 322.488 730.084 319.928L738.724 320.6C737.38 325.144 734.82 328.888 731.044 331.832C727.332 334.712 722.788 336.152 717.412 336.152ZM702.532 304.952H730.66C730.276 300.024 728.836 296.408 726.34 294.104C723.908 291.8 720.804 290.648 717.028 290.648C713.124 290.648 709.892 291.864 707.332 294.296C704.836 296.664 703.236 300.216 702.532 304.952Z" fill="black"/>
</svg>
