<?xml version="1.0" encoding="UTF-8"?>
<svg id="Layer_1" xmlns="http://www.w3.org/2000/svg" version="1.1" viewBox="0 0 622 603">
  <!-- Generator: Adobe Illustrator 30.0.0, SVG Export Plug-In . SVG Version: 2.1.1 Build 123)  -->
  <defs>
    <style>
      .st0, .st1 {
        fill: none;
      }

      .st2 {
        fill: #d9d9d9;
      }

      .st1 {
        stroke: #000;
        stroke-width: 7px;
      }
    </style>
  </defs>
  <rect class="st0" width="622" height="603"/>
  <line class="st1" x1="331.9" y1="343" x2="517.7" y2="461.4"/>
  <ellipse class="st2" cx="246.5" cy="246.5" rx="140.5" ry="106.5"/>
  <path d="M132.1,278.6v-43.5h5v7.3c.1,0-.6-.4-.6-.4.9-2.5,2.3-4.4,4.2-5.7,2-1.3,4.3-2,6.9-2s6.1.8,8.3,2.5c2.2,1.7,3.8,3.8,4.8,6.5,1.1,2.7,1.6,5.6,1.6,8.7s-.5,6-1.6,8.7c-1,2.7-2.6,4.9-4.8,6.5-2.1,1.7-4.9,2.5-8.3,2.5s-3.4-.3-4.9-.9c-1.5-.6-2.8-1.4-3.8-2.5-1-1.1-1.7-2.3-2.1-3.8l.8-.9v16.9h-5.4ZM147.1,264.6c2.9,0,5.3-1.1,7-3.3s2.6-5.3,2.6-9.3-.9-7.1-2.6-9.3c-1.7-2.2-4-3.3-7-3.3s-3.7.5-5.1,1.4c-1.4.9-2.5,2.3-3.3,4.2-.8,1.9-1.2,4.2-1.2,7s.4,5.1,1.2,7c.8,1.9,1.9,3.3,3.3,4.2s3.2,1.4,5.1,1.4ZM178.3,269.8c-3.1,0-5.8-.7-8.2-2.2-2.3-1.5-4.2-3.5-5.4-6.1-1.3-2.7-1.9-5.8-1.9-9.4s.6-6.8,1.9-9.4c1.3-2.6,3.1-4.7,5.4-6.1,2.3-1.5,5.1-2.2,8.2-2.2s5.8.7,8.1,2.2c2.3,1.5,4.2,3.5,5.4,6.1,1.3,2.6,1.9,5.8,1.9,9.4s-.6,6.7-1.9,9.4c-1.3,2.6-3.1,4.7-5.4,6.1-2.3,1.5-5,2.2-8.1,2.2ZM178.3,264.6c3.1,0,5.5-1.1,7.2-3.3,1.7-2.3,2.6-5.4,2.6-9.3s-.9-7-2.6-9.2c-1.7-2.3-4.1-3.4-7.2-3.4s-5.5,1.1-7.3,3.4c-1.8,2.2-2.6,5.3-2.6,9.2s.9,7,2.6,9.3c1.7,2.2,4.2,3.3,7.3,3.3ZM208.7,269.8c-2.9,0-5.5-.7-7.7-2.2-2.1-1.5-3.8-3.5-4.9-6.1s-1.7-5.8-1.7-9.4.6-6.8,1.7-9.4c1.2-2.6,2.8-4.7,4.9-6.1,2.2-1.5,4.7-2.2,7.7-2.2s4.3.5,6.2,1.5c1.9.9,3.3,2.3,4.2,4v-16.3h5.4v45.4h-4.9l-.2-5.1c-.9,1.8-2.4,3.3-4.3,4.4-1.9,1-4.1,1.5-6.5,1.5ZM209.8,264.6c2,0,3.7-.5,5.1-1.5,1.4-1,2.5-2.5,3.2-4.4.7-1.9,1.1-4.2,1.1-6.7s-.4-4.9-1.1-6.8c-.7-1.9-1.8-3.3-3.2-4.3-1.4-1-3.1-1.5-5.1-1.5-3,0-5.4,1.1-7.2,3.4-1.7,2.2-2.6,5.3-2.6,9.2s.9,7,2.6,9.2c1.8,2.3,4.2,3.4,7.2,3.4ZM242.9,269.8c-3.2,0-5.9-.7-8.3-2.2-2.3-1.5-4.1-3.5-5.4-6.1-1.3-2.7-1.9-5.8-1.9-9.4s.6-6.7,1.9-9.3,3.1-4.7,5.4-6.1c2.3-1.5,5.1-2.2,8.3-2.2s4.9.5,6.9,1.4c2,.9,3.7,2.2,5,4,1.3,1.7,2.1,3.9,2.5,6.4l-5.6.4c-.4-2.3-1.4-4-2.9-5.2-1.6-1.2-3.5-1.9-5.8-1.9s-5.5,1.1-7.3,3.4c-1.7,2.2-2.6,5.3-2.6,9.2s.9,7,2.6,9.3c1.8,2.2,4.2,3.3,7.3,3.3s4.2-.6,5.8-1.9c1.6-1.3,2.6-3.2,2.9-5.8l5.6.4c-.4,2.5-1.2,4.7-2.5,6.6-1.3,1.8-2.9,3.3-5,4.3-2,1-4.3,1.5-6.9,1.5ZM269.5,269.8c-3.5,0-6.3-.8-8.4-2.4-2-1.6-3.1-3.9-3.1-6.8s.9-5.2,2.6-6.8,4.4-2.8,8.1-3.5l12-2.2c0-2.9-.7-5-2-6.4-1.3-1.4-3.3-2.1-6-2.1s-4.2.5-5.6,1.6c-1.4,1-2.3,2.5-2.8,4.5l-5.7-.4c.6-3.2,2.2-5.8,4.6-7.7,2.5-2,5.6-3,9.5-3s7.7,1.2,10,3.7c2.3,2.4,3.5,5.8,3.5,10.1v14c0,.8.1,1.3.4,1.7.3.3.8.4,1.4.4h1.3v4.7c-.2,0-.4,0-.8,0-.4,0-.8,0-1.2,0-1.5,0-2.8-.2-3.8-.7-.9-.5-1.6-1.3-2-2.3-.4-1.1-.6-2.5-.6-4.2h.6c-.3,1.6-1,2.9-2.2,4.1-1.2,1.2-2.6,2.1-4.3,2.8-1.7.6-3.5,1-5.4,1ZM270,265c2.3,0,4.2-.4,5.8-1.3,1.6-.9,2.9-2.1,3.7-3.6.9-1.5,1.3-3.2,1.3-5.1v-2.4l-11,2c-2.3.4-3.9,1.1-4.8,2-.9.9-1.3,2-1.3,3.4s.6,2.8,1.7,3.7c1.2.9,2.7,1.3,4.7,1.3ZM303.1,269.8c-3,0-5.6-.5-7.7-1.5-2.1-1-3.7-2.3-4.9-4-1.2-1.7-1.8-3.7-2-6l5.6-.4c.3,2,1.2,3.7,2.6,4.9,1.4,1.2,3.5,1.8,6.4,1.8s4.1-.4,5.5-1.1c1.4-.8,2.1-2,2.1-3.6s-.2-1.6-.6-2.2c-.4-.6-1.3-1.1-2.5-1.5-1.2-.5-3.1-.9-5.5-1.3-3.2-.6-5.8-1.3-7.7-2.2-1.8-.9-3.2-2-4-3.3-.8-1.3-1.2-2.9-1.2-4.7,0-3,1.1-5.5,3.3-7.4,2.2-2,5.4-2.9,9.5-2.9s5.1.5,7,1.5c1.9,1,3.4,2.3,4.5,4,1.1,1.6,1.8,3.4,2.2,5.4l-5.6.4c-.3-1.2-.7-2.2-1.4-3.1-.7-.9-1.6-1.7-2.7-2.2-1.1-.6-2.4-.8-4-.8-2.4,0-4.2.5-5.4,1.4-1.2.9-1.7,2.1-1.7,3.6s.3,2,.8,2.8c.6.7,1.4,1.3,2.6,1.7,1.2.4,2.8.8,4.8,1.2,3.5.6,6.1,1.3,8.1,2.2,1.9.9,3.3,1.9,4,3.1.8,1.2,1.2,2.8,1.2,4.5s-.6,3.9-1.8,5.4c-1.2,1.5-2.7,2.6-4.7,3.3-2,.8-4.2,1.2-6.7,1.2ZM330.3,269c-3.1,0-5.4-.7-6.8-2.1-1.5-1.4-2.2-3.6-2.2-6.6v-33.2h5.4v33c0,1.5.3,2.6,1,3.2.7.6,1.7.9,3.1.9h4.9v4.7h-5.4ZM316.3,239.8v-4.7h19.4v4.7h-19.4ZM349.8,269.8c-3,0-5.6-.5-7.7-1.5-2.1-1-3.7-2.3-4.9-4-1.2-1.7-1.8-3.7-2-6l5.6-.4c.3,2,1.2,3.7,2.6,4.9,1.4,1.2,3.5,1.8,6.4,1.8s4.1-.4,5.5-1.1c1.4-.8,2.1-2,2.1-3.6s-.2-1.6-.6-2.2c-.4-.6-1.3-1.1-2.5-1.5-1.2-.5-3.1-.9-5.5-1.3-3.2-.6-5.8-1.3-7.7-2.2-1.8-.9-3.2-2-4-3.3-.8-1.3-1.2-2.9-1.2-4.7,0-3,1.1-5.5,3.3-7.4,2.2-2,5.4-2.9,9.5-2.9s5.1.5,7,1.5c1.9,1,3.4,2.3,4.5,4,1.1,1.6,1.8,3.4,2.2,5.4l-5.6.4c-.3-1.2-.7-2.2-1.4-3.1-.7-.9-1.6-1.7-2.7-2.2-1.1-.6-2.4-.8-4-.8-2.4,0-4.2.5-5.4,1.4-1.2.9-1.7,2.1-1.7,3.6s.3,2,.8,2.8c.6.7,1.4,1.3,2.6,1.7,1.2.4,2.8.8,4.8,1.2,3.5.6,6.1,1.3,8.1,2.2,1.9.9,3.3,1.9,4,3.1.8,1.2,1.2,2.8,1.2,4.5s-.6,3.9-1.8,5.4c-1.2,1.5-2.7,2.6-4.7,3.3-2,.8-4.2,1.2-6.7,1.2Z"/>
</svg>