<?xml version="1.0" encoding="UTF-8"?>
<svg id="Layer_1" data-name="Layer 1" xmlns="http://www.w3.org/2000/svg" viewBox="0 0 979 603">
  <defs>
    <style>
      .cls-1 {
        fill: none;
      }

      .cls-2 {
        fill: #fff;
      }

      .cls-3 {
        fill: #ef3e36;
      }
    </style>
  </defs>
  <rect class="cls-1" width="979" height="603"/>
  <ellipse class="cls-3" cx="490" cy="302" rx="335" ry="161"/>
  <path class="cls-2" d="M216.83,335v-68.16h8.26v68.16h-8.26ZM235.77,335v-50.88h7.39l.29,12.96-.96-.86c.64-3.01,1.76-5.47,3.36-7.39,1.6-1.98,3.52-3.46,5.76-4.42,2.3-.96,4.77-1.44,7.39-1.44,3.9,0,7.1.86,9.6,2.59,2.56,1.73,4.45,4.06,5.66,7.01,1.28,2.88,1.92,6.11,1.92,9.7v32.74h-8.06v-30.43c0-3.14-.38-5.76-1.15-7.87-.7-2.18-1.86-3.81-3.46-4.9-1.6-1.15-3.68-1.73-6.24-1.73-3.9,0-7.14,1.25-9.7,3.74-2.5,2.43-3.74,6.02-3.74,10.75v30.43h-8.06ZM301.76,336.15c-4.42,0-8.26-1.09-11.52-3.26-3.2-2.18-5.66-5.25-7.39-9.22-1.73-3.97-2.59-8.67-2.59-14.11s.86-10.14,2.59-14.11,4.19-7.04,7.39-9.22c3.26-2.18,7.1-3.26,11.52-3.26,3.39,0,6.5.74,9.31,2.21,2.82,1.41,4.93,3.42,6.34,6.05v-24.38h8.06v68.16h-7.3l-.29-7.68c-1.41,2.75-3.55,4.93-6.43,6.53-2.88,1.54-6.11,2.3-9.7,2.3ZM303.39,328.47c3.01,0,5.54-.77,7.58-2.3,2.11-1.54,3.71-3.71,4.8-6.53,1.09-2.88,1.63-6.24,1.63-10.08s-.54-7.36-1.63-10.18c-1.09-2.82-2.69-4.96-4.8-6.43-2.05-1.54-4.58-2.3-7.58-2.3-4.48,0-8.06,1.7-10.75,5.09-2.62,3.33-3.94,7.94-3.94,13.82s1.31,10.43,3.94,13.82c2.69,3.39,6.27,5.09,10.75,5.09ZM353.02,336.15c-4.8,0-8.96-1.09-12.48-3.26-3.46-2.18-6.14-5.25-8.06-9.22-1.86-4.03-2.78-8.74-2.78-14.11s.93-10.05,2.78-14.02c1.92-3.97,4.58-7.04,7.97-9.22,3.46-2.24,7.52-3.36,12.19-3.36,4.42,0,8.32,1.06,11.71,3.17,3.39,2.05,6.02,5.06,7.87,9.02,1.92,3.97,2.88,8.8,2.88,14.5v2.4h-36.96c.32,5.44,1.76,9.54,4.32,12.29,2.62,2.75,6.14,4.13,10.56,4.13,3.33,0,6.05-.77,8.16-2.3,2.18-1.6,3.68-3.68,4.51-6.24l8.64.67c-1.34,4.54-3.9,8.29-7.68,11.23-3.71,2.88-8.26,4.32-13.63,4.32ZM338.14,304.95h28.13c-.38-4.93-1.82-8.54-4.32-10.85-2.43-2.3-5.54-3.46-9.31-3.46s-7.14,1.22-9.7,3.65c-2.5,2.37-4.1,5.92-4.8,10.66ZM372.29,335l18.72-26.11-17.76-24.77h9.41l13.34,19.2,12.96-19.2h9.6l-17.57,24.96,18.43,25.92h-9.41l-14.02-20.54-14.11,20.54h-9.6ZM439.98,336.15c-4.8,0-8.96-1.09-12.48-3.26-3.46-2.18-6.14-5.25-8.06-9.22-1.86-4.03-2.78-8.74-2.78-14.11s.93-10.05,2.78-14.02c1.92-3.97,4.58-7.04,7.97-9.22,3.46-2.24,7.52-3.36,12.19-3.36,4.42,0,8.32,1.06,11.71,3.17,3.39,2.05,6.02,5.06,7.87,9.02,1.92,3.97,2.88,8.8,2.88,14.5v2.4h-36.96c.32,5.44,1.76,9.54,4.32,12.29,2.62,2.75,6.14,4.13,10.56,4.13,3.33,0,6.05-.77,8.16-2.3,2.18-1.6,3.68-3.68,4.51-6.24l8.64.67c-1.34,4.54-3.9,8.29-7.68,11.23-3.71,2.88-8.26,4.32-13.63,4.32ZM425.1,304.95h28.13c-.38-4.93-1.82-8.54-4.32-10.85-2.43-2.3-5.54-3.46-9.31-3.46s-7.14,1.22-9.7,3.65c-2.5,2.37-4.1,5.92-4.8,10.66ZM484.79,336.15c-4.54,0-8.42-.74-11.62-2.21-3.14-1.47-5.6-3.49-7.39-6.05-1.73-2.62-2.72-5.6-2.98-8.93l8.45-.58c.51,3.07,1.82,5.54,3.94,7.39,2.11,1.79,5.31,2.69,9.6,2.69,3.46,0,6.21-.54,8.26-1.63,2.11-1.15,3.17-2.98,3.17-5.47,0-1.34-.32-2.46-.96-3.36-.64-.9-1.89-1.66-3.74-2.3-1.86-.7-4.61-1.38-8.26-2.02-4.86-.9-8.7-1.98-11.52-3.26-2.75-1.34-4.74-2.98-5.95-4.9-1.15-1.98-1.73-4.32-1.73-7.01,0-4.54,1.66-8.26,4.99-11.14,3.33-2.94,8.06-4.42,14.21-4.42,4.16,0,7.65.77,10.46,2.3,2.88,1.47,5.12,3.46,6.72,5.95,1.66,2.43,2.75,5.12,3.26,8.06l-8.45.58c-.38-1.79-1.09-3.36-2.11-4.7-1.02-1.41-2.37-2.5-4.03-3.26-1.66-.83-3.65-1.25-5.95-1.25-3.65,0-6.34.7-8.06,2.11-1.73,1.41-2.59,3.2-2.59,5.38,0,1.66.38,3.04,1.15,4.13.83,1.02,2.14,1.89,3.94,2.59,1.79.64,4.19,1.22,7.2,1.73,5.18.9,9.22,1.98,12.1,3.26,2.88,1.28,4.9,2.85,6.05,4.7,1.15,1.86,1.73,4.13,1.73,6.82,0,3.14-.9,5.82-2.69,8.06-1.73,2.18-4.1,3.84-7.1,4.99-2.94,1.15-6.3,1.73-10.08,1.73ZM547.04,336.15c-4.67,0-8.77-1.09-12.29-3.26-3.52-2.18-6.24-5.25-8.16-9.22-1.92-4.03-2.88-8.74-2.88-14.11s.96-10.14,2.88-14.11,4.64-7.04,8.16-9.22c3.52-2.18,7.62-3.26,12.29-3.26s8.74,1.09,12.19,3.26c3.52,2.18,6.24,5.25,8.16,9.22,1.92,3.97,2.88,8.67,2.88,14.11s-.96,10.08-2.88,14.11c-1.92,3.97-4.64,7.04-8.16,9.22-3.46,2.18-7.52,3.26-12.19,3.26ZM547.04,328.47c4.67,0,8.29-1.66,10.85-4.99,2.62-3.39,3.94-8.03,3.94-13.92s-1.31-10.5-3.94-13.82c-2.56-3.39-6.18-5.09-10.85-5.09s-8.32,1.7-10.94,5.09c-2.62,3.33-3.94,7.94-3.94,13.82s1.31,10.53,3.94,13.92c2.62,3.33,6.27,4.99,10.94,4.99ZM577.57,335v-55.49c0-3.78,1.09-6.82,3.26-9.12,2.18-2.37,5.57-3.55,10.18-3.55h8.06v7.1h-7.49c-1.98,0-3.49.54-4.51,1.63-.96,1.09-1.44,2.59-1.44,4.51v54.91h-8.06ZM570.66,291.22v-7.1h27.74v7.1h-27.74ZM622.16,335v-68.16h11.52l21.79,59.14,21.7-59.14h11.52v68.16h-8.26v-52.8l-19.49,52.8h-11.04l-19.49-52.8v52.8h-8.26ZM717.41,336.15c-4.8,0-8.96-1.09-12.48-3.26-3.46-2.18-6.14-5.25-8.06-9.22-1.86-4.03-2.78-8.74-2.78-14.11s.93-10.05,2.78-14.02c1.92-3.97,4.58-7.04,7.97-9.22,3.46-2.24,7.52-3.36,12.19-3.36,4.42,0,8.32,1.06,11.71,3.17,3.39,2.05,6.02,5.06,7.87,9.02,1.92,3.97,2.88,8.8,2.88,14.5v2.4h-36.96c.32,5.44,1.76,9.54,4.32,12.29,2.62,2.75,6.14,4.13,10.56,4.13,3.33,0,6.05-.77,8.16-2.3,2.18-1.6,3.68-3.68,4.51-6.24l8.64.67c-1.34,4.54-3.9,8.29-7.68,11.23-3.71,2.88-8.26,4.32-13.63,4.32ZM702.53,304.95h28.13c-.38-4.93-1.82-8.54-4.32-10.85-2.43-2.3-5.54-3.46-9.31-3.46s-7.14,1.22-9.7,3.65c-2.5,2.37-4.1,5.92-4.8,10.66Z"/>
</svg>