<?xml version="1.0" encoding="UTF-8"?>
<svg id="Layer_1" data-name="Layer 1" xmlns="http://www.w3.org/2000/svg" viewBox="0 0 622 603">
  <defs>
    <style>
      .cls-1, .cls-2 {
        fill: none;
      }

      .cls-3 {
        fill: #fff;
      }

      .cls-4 {
        fill: #4f7cac;
      }

      .cls-2 {
        stroke: #000;
        stroke-width: 7px;
      }
    </style>
  </defs>
  <rect class="cls-1" width="622" height="603"/>
  <line class="cls-2" x1="311.98" y1="165.96" x2="313.02" y2="269.98"/>
  <rect class="cls-4" x="187" y="283.01" width="248" height="154" rx="27" ry="27"/>
  <path class="cls-3" d="M237.12,382.01v-33.92h4.93l.19,8.58-.77-.26c.38-1.88,1.04-3.48,1.98-4.8.98-1.36,2.18-2.41,3.58-3.14,1.41-.77,2.97-1.15,4.67-1.15,2.94,0,5.33.81,7.17,2.43,1.88,1.62,3.05,3.88,3.52,6.78l-1.02-.06c.34-1.96.96-3.61,1.86-4.93.94-1.36,2.13-2.41,3.58-3.14,1.45-.73,3.11-1.09,4.99-1.09,2.43,0,4.48.51,6.14,1.54,1.66.98,2.92,2.43,3.78,4.35s1.28,4.24,1.28,6.98v21.82h-5.38v-20.67c0-3.07-.6-5.38-1.79-6.91-1.2-1.58-2.96-2.37-5.31-2.37-1.58,0-2.97.38-4.16,1.15-1.15.77-2.05,1.88-2.69,3.33-.64,1.41-.96,3.14-.96,5.18v20.29h-5.38v-20.29c0-3.03-.53-5.4-1.6-7.1s-2.86-2.56-5.38-2.56c-1.58,0-2.96.38-4.16,1.15-1.15.77-2.07,1.88-2.75,3.33-.64,1.45-.96,3.18-.96,5.18v20.29h-5.38ZM298.96,382.77c-3.37,0-6.08-1.13-8.13-3.39-2.01-2.3-3.01-5.46-3.01-9.47v-21.82h5.38v20.35c0,3.29.58,5.72,1.73,7.3,1.19,1.54,3.01,2.3,5.44,2.3,2.69,0,4.8-.85,6.34-2.56,1.54-1.75,2.3-4.14,2.3-7.17v-20.22h5.38v33.92h-5.12v-8.38l.83.45c-.68,2.77-1.98,4.93-3.9,6.46-1.92,1.49-4.33,2.24-7.23,2.24ZM331.89,382.77c-3.03,0-5.61-.49-7.74-1.47-2.09-.98-3.73-2.33-4.93-4.03-1.15-1.75-1.81-3.73-1.98-5.95l5.63-.38c.34,2.05,1.22,3.69,2.62,4.93,1.41,1.2,3.54,1.79,6.4,1.79,2.3,0,4.14-.36,5.5-1.09,1.41-.77,2.11-1.98,2.11-3.65,0-.9-.21-1.64-.64-2.24-.43-.6-1.26-1.11-2.5-1.54-1.24-.47-3.07-.92-5.5-1.34-3.24-.6-5.8-1.32-7.68-2.18-1.84-.9-3.16-1.98-3.97-3.26-.77-1.32-1.15-2.88-1.15-4.67,0-3.03,1.11-5.5,3.33-7.42,2.22-1.96,5.38-2.94,9.47-2.94,2.77,0,5.1.51,6.98,1.54,1.92.98,3.41,2.3,4.48,3.97,1.11,1.62,1.83,3.41,2.18,5.38l-5.63.38c-.26-1.2-.73-2.24-1.41-3.14-.68-.94-1.58-1.66-2.69-2.18-1.11-.55-2.43-.83-3.97-.83-2.43,0-4.22.47-5.38,1.41-1.15.94-1.73,2.13-1.73,3.58,0,1.11.26,2.03.77,2.75.55.68,1.43,1.26,2.62,1.73,1.2.43,2.79.81,4.8,1.15,3.46.6,6.14,1.32,8.06,2.18,1.92.85,3.26,1.9,4.03,3.14s1.15,2.75,1.15,4.54c0,2.09-.6,3.88-1.79,5.38-1.15,1.45-2.73,2.56-4.74,3.33-1.96.77-4.2,1.15-6.72,1.15ZM347.99,382.01v-33.92h5.38v33.92h-5.38ZM347.86,342.77v-6.27h5.63v6.27h-5.63ZM371.76,382.77c-3.16,0-5.91-.73-8.26-2.18-2.3-1.45-4.1-3.5-5.38-6.14-1.28-2.69-1.92-5.82-1.92-9.41s.64-6.7,1.92-9.34,3.07-4.69,5.38-6.14c2.35-1.49,5.1-2.24,8.26-2.24,2.6,0,4.91.47,6.91,1.41,2.05.9,3.71,2.22,4.99,3.97s2.11,3.88,2.5,6.4l-5.63.38c-.38-2.26-1.37-3.99-2.94-5.18-1.58-1.24-3.52-1.86-5.82-1.86-3.11,0-5.55,1.13-7.3,3.39-1.75,2.22-2.62,5.29-2.62,9.22s.87,7.02,2.62,9.28c1.75,2.22,4.18,3.33,7.3,3.33,2.3,0,4.25-.64,5.82-1.92,1.58-1.28,2.56-3.2,2.94-5.76l5.63.38c-.38,2.52-1.22,4.71-2.5,6.59-1.28,1.84-2.94,3.26-4.99,4.29-2.01,1.02-4.31,1.54-6.91,1.54Z"/>
</svg>