<?xml version="1.0" encoding="UTF-8"?>
<svg id="Layer_1" data-name="Layer 1" xmlns="http://www.w3.org/2000/svg" viewBox="0 0 622 603">
  <defs>
    <style>
      .cls-1, .cls-2 {
        fill: none;
      }

      .cls-3 {
        fill: #fff;
      }

      .cls-4 {
        fill: #4f7cac;
      }

      .cls-2 {
        stroke: #000;
        stroke-width: 7px;
      }
    </style>
  </defs>
  <rect class="cls-1" width="622" height="603"/>
  <path class="cls-4" d="M187.58,189.19c13.93-33.87,61.9-33.87,75.84,0l7.74,18.83c6.1,14.82,20.27,24.74,36.29,25.37l14.03.56c38.91,1.55,53.95,51.37,22.4,74.19l-4.57,3.31c-14.2,10.27-20.3,28.42-15.19,45.18l2.77,9.07c10.96,35.93-28.16,66.46-60.35,47.09l-19.9-11.97c-13-7.82-29.27-7.82-42.27,0l-19.9,11.97c-32.19,19.37-71.31-11.16-60.35-47.09l2.77-9.07c5.11-16.76-.99-34.92-15.19-45.18l-4.57-3.31c-31.55-22.82-16.51-72.64,22.4-74.19l14.03-.56c16.02-.64,30.19-10.55,36.29-25.37l7.74-18.83Z"/>
  <path class="cls-3" d="M130.12,314v-33.92h4.74l.26,8.58-.51-.19c.43-2.9,1.34-5.01,2.75-6.34,1.45-1.36,3.37-2.05,5.76-2.05h3.33v5.12h-3.26c-1.71,0-3.14.32-4.29.96-1.11.6-1.96,1.51-2.56,2.75-.56,1.2-.83,2.73-.83,4.61v20.48h-5.38ZM156.48,314.77c-3.5,0-6.29-.81-8.38-2.43-2.05-1.62-3.07-3.88-3.07-6.78s.85-5.18,2.56-6.85c1.71-1.66,4.42-2.84,8.13-3.52l12.03-2.24c0-2.86-.68-4.99-2.05-6.4-1.32-1.41-3.33-2.11-6.02-2.11-2.35,0-4.2.53-5.57,1.6-1.37,1.02-2.3,2.52-2.82,4.48l-5.7-.45c.64-3.2,2.18-5.78,4.61-7.74,2.47-2.01,5.63-3.01,9.47-3.01,4.35,0,7.68,1.24,9.98,3.71,2.3,2.43,3.46,5.8,3.46,10.11v14.02c0,.77.13,1.32.38,1.66.3.3.77.45,1.41.45h1.34v4.74c-.17.04-.45.06-.83.06-.38.04-.79.06-1.22.06-1.54,0-2.79-.23-3.78-.7-.94-.51-1.62-1.28-2.05-2.3-.43-1.07-.64-2.45-.64-4.16l.64.13c-.3,1.45-1.02,2.77-2.18,3.97-1.15,1.15-2.58,2.07-4.29,2.75-1.71.64-3.52.96-5.44.96ZM156.99,310.03c2.26,0,4.18-.43,5.76-1.28,1.62-.9,2.86-2.09,3.71-3.58.85-1.54,1.28-3.24,1.28-5.12v-2.43l-11.01,2.05c-2.3.43-3.9,1.09-4.8,1.98-.85.85-1.28,1.98-1.28,3.39,0,1.58.55,2.82,1.66,3.71,1.15.85,2.71,1.28,4.67,1.28ZM177.85,314v-33.92h4.93l.19,8.64-.64-.58c.43-2.01,1.17-3.65,2.24-4.93,1.07-1.32,2.35-2.3,3.84-2.94,1.54-.64,3.18-.96,4.93-.96,2.6,0,4.74.58,6.4,1.73,1.71,1.15,2.97,2.71,3.78,4.67.85,1.92,1.28,4.07,1.28,6.46v21.82h-5.38v-20.29c0-2.09-.26-3.84-.77-5.25-.47-1.45-1.24-2.54-2.3-3.26-1.07-.77-2.45-1.15-4.16-1.15-2.6,0-4.76.83-6.46,2.5-1.66,1.62-2.5,4.01-2.5,7.17v20.29h-5.38ZM221.84,314.77c-2.94,0-5.5-.73-7.68-2.18-2.13-1.45-3.78-3.5-4.93-6.14-1.15-2.64-1.73-5.78-1.73-9.41s.58-6.76,1.73-9.41c1.15-2.64,2.79-4.69,4.93-6.14,2.18-1.45,4.74-2.18,7.68-2.18,2.26,0,4.33.49,6.21,1.47,1.88.94,3.29,2.28,4.22,4.03v-16.26h5.38v45.44h-4.86l-.19-5.12c-.94,1.83-2.37,3.29-4.29,4.35-1.92,1.02-4.07,1.54-6.46,1.54ZM222.93,309.65c2,0,3.69-.51,5.06-1.54,1.41-1.02,2.47-2.48,3.2-4.35.73-1.92,1.09-4.16,1.09-6.72s-.36-4.91-1.09-6.78c-.73-1.88-1.79-3.31-3.2-4.29-1.37-1.02-3.05-1.54-5.06-1.54-2.99,0-5.38,1.13-7.17,3.39-1.75,2.22-2.62,5.29-2.62,9.22s.88,6.95,2.62,9.22c1.79,2.26,4.18,3.39,7.17,3.39ZM256.01,314.77c-3.11,0-5.85-.73-8.19-2.18-2.35-1.45-4.16-3.5-5.44-6.14-1.28-2.69-1.92-5.82-1.92-9.41s.64-6.76,1.92-9.41c1.28-2.64,3.09-4.69,5.44-6.14,2.35-1.45,5.08-2.18,8.19-2.18s5.82.72,8.13,2.18c2.35,1.45,4.16,3.5,5.44,6.14,1.28,2.65,1.92,5.78,1.92,9.41s-.64,6.72-1.92,9.41c-1.28,2.64-3.09,4.69-5.44,6.14-2.3,1.45-5.01,2.18-8.13,2.18ZM256.01,309.65c3.11,0,5.53-1.11,7.23-3.33,1.75-2.26,2.62-5.36,2.62-9.28s-.88-7-2.62-9.22c-1.71-2.26-4.12-3.39-7.23-3.39s-5.55,1.13-7.3,3.39c-1.75,2.22-2.62,5.29-2.62,9.22s.87,7.02,2.62,9.28c1.75,2.22,4.18,3.33,7.3,3.33ZM274.35,314v-33.92h4.93l.19,8.58-.77-.26c.38-1.88,1.05-3.48,1.98-4.8.98-1.37,2.18-2.41,3.58-3.14,1.41-.77,2.96-1.15,4.67-1.15,2.94,0,5.33.81,7.17,2.43,1.88,1.62,3.05,3.88,3.52,6.78l-1.02-.06c.34-1.96.96-3.6,1.86-4.93.94-1.37,2.13-2.41,3.58-3.14,1.45-.73,3.12-1.09,4.99-1.09,2.43,0,4.48.51,6.14,1.54,1.66.98,2.92,2.43,3.78,4.35.85,1.92,1.28,4.24,1.28,6.98v21.82h-5.38v-20.67c0-3.07-.6-5.38-1.79-6.91-1.2-1.58-2.96-2.37-5.31-2.37-1.58,0-2.96.38-4.16,1.15-1.15.77-2.05,1.88-2.69,3.33-.64,1.41-.96,3.14-.96,5.18v20.29h-5.38v-20.29c0-3.03-.53-5.4-1.6-7.1-1.07-1.71-2.86-2.56-5.38-2.56-1.58,0-2.96.38-4.16,1.15-1.15.77-2.07,1.88-2.75,3.33-.64,1.45-.96,3.18-.96,5.18v20.29h-5.38Z"/>
  <line class="cls-2" x1="402.19" y1="247.01" x2="511.18" y2="181.01"/>
</svg>