<?xml version="1.0" encoding="UTF-8"?>
<svg id="Layer_1" data-name="Layer 1" xmlns="http://www.w3.org/2000/svg" viewBox="0 0 622 603">
  <defs>
    <style>
      .cls-1 {
        fill: #fef9ef;
      }

      .cls-2 {
        fill: #7fbfea;
      }
    </style>
  </defs>
  <rect class="cls-2" x="177" y="226" width="248" height="154" rx="27" ry="27"/>
  <path class="cls-1" d="M154.24,342v-67.84h9.86l.38,17.15-1.54-.51c.77-3.75,2.09-6.95,3.97-9.6,1.96-2.73,4.35-4.82,7.17-6.27,2.82-1.54,5.93-2.3,9.34-2.3,5.89,0,10.67,1.62,14.34,4.86,3.76,3.24,6.1,7.76,7.04,13.57l-2.05-.13c.68-3.93,1.92-7.21,3.71-9.86,1.88-2.73,4.27-4.82,7.17-6.27,2.9-1.45,6.23-2.18,9.98-2.18,4.86,0,8.96,1.02,12.29,3.07,3.33,1.96,5.84,4.86,7.55,8.7s2.56,8.49,2.56,13.95v43.65h-10.75v-41.34c0-6.14-1.2-10.75-3.58-13.82-2.39-3.16-5.93-4.74-10.62-4.74-3.16,0-5.93.77-8.32,2.3-2.3,1.54-4.1,3.76-5.38,6.66-1.28,2.82-1.92,6.27-1.92,10.37v40.58h-10.75v-40.58c0-6.06-1.07-10.8-3.2-14.21-2.13-3.41-5.72-5.12-10.75-5.12-3.16,0-5.93.77-8.32,2.3-2.3,1.54-4.14,3.76-5.5,6.66-1.28,2.9-1.92,6.36-1.92,10.37v40.58h-10.75ZM277.93,343.54c-6.74,0-12.16-2.26-16.26-6.78-4.01-4.61-6.02-10.92-6.02-18.94v-43.65h10.75v40.7c0,6.57,1.15,11.43,3.46,14.59,2.39,3.07,6.02,4.61,10.88,4.61,5.38,0,9.6-1.71,12.67-5.12,3.07-3.5,4.61-8.28,4.61-14.34v-40.45h10.75v67.84h-10.24v-16.77l1.66.9c-1.36,5.55-3.97,9.86-7.81,12.93-3.84,2.99-8.66,4.48-14.46,4.48ZM343.77,343.54c-6.06,0-11.22-.98-15.49-2.94-4.18-1.96-7.47-4.65-9.86-8.06-2.3-3.5-3.63-7.47-3.97-11.9l11.26-.77c.68,4.1,2.43,7.38,5.25,9.86,2.82,2.39,7.08,3.58,12.8,3.58,4.61,0,8.28-.72,11.01-2.18,2.82-1.54,4.22-3.97,4.22-7.3,0-1.79-.43-3.29-1.28-4.48-.85-1.2-2.52-2.22-4.99-3.07-2.48-.94-6.14-1.83-11.01-2.69-6.49-1.2-11.61-2.65-15.36-4.35-3.67-1.79-6.32-3.97-7.94-6.53-1.54-2.65-2.3-5.76-2.3-9.34,0-6.06,2.22-11.01,6.66-14.85,4.44-3.92,10.75-5.89,18.94-5.89,5.55,0,10.2,1.02,13.95,3.07,3.84,1.96,6.83,4.61,8.96,7.94,2.22,3.24,3.67,6.83,4.35,10.75l-11.26.77c-.51-2.39-1.45-4.48-2.82-6.27-1.36-1.88-3.16-3.33-5.38-4.35-2.22-1.11-4.86-1.66-7.94-1.66-4.86,0-8.45.94-10.75,2.82-2.3,1.88-3.46,4.27-3.46,7.17,0,2.22.51,4.05,1.54,5.5,1.11,1.37,2.86,2.52,5.25,3.46,2.39.85,5.59,1.62,9.6,2.3,6.91,1.2,12.29,2.64,16.13,4.35s6.53,3.8,8.06,6.27,2.3,5.5,2.3,9.09c0,4.18-1.19,7.76-3.58,10.75-2.3,2.9-5.46,5.12-9.47,6.66-3.92,1.54-8.4,2.3-13.44,2.3ZM375.98,342v-67.84h10.75v67.84h-10.75ZM375.73,263.54v-12.54h11.26v12.54h-11.26ZM423.52,343.54c-6.32,0-11.82-1.45-16.51-4.35-4.61-2.9-8.19-7-10.75-12.29-2.56-5.38-3.84-11.65-3.84-18.82s1.28-13.4,3.84-18.69c2.56-5.29,6.14-9.39,10.75-12.29,4.69-2.99,10.2-4.48,16.51-4.48,5.21,0,9.81.94,13.82,2.82,4.1,1.79,7.42,4.44,9.98,7.94s4.22,7.76,4.99,12.8l-11.26.77c-.77-4.52-2.73-7.98-5.89-10.37-3.16-2.47-7.04-3.71-11.65-3.71-6.23,0-11.09,2.26-14.59,6.78-3.5,4.44-5.25,10.58-5.25,18.43s1.75,14.04,5.25,18.56c3.5,4.44,8.36,6.66,14.59,6.66,4.61,0,8.49-1.28,11.65-3.84,3.16-2.56,5.12-6.4,5.89-11.52l11.26.77c-.77,5.04-2.43,9.43-4.99,13.18-2.56,3.67-5.89,6.53-9.98,8.58-4.01,2.05-8.62,3.07-13.82,3.07Z"/>
</svg>